<svg id="Group_2763" data-name="Group 2763" xmlns="http://www.w3.org/2000/svg" viewBox="2879 446 203 216">
  <defs>
    <style>
      .cls-1 {
        fill: none;
      }

      .cls-2 {
        fill: #0d2e3f;
      }
    </style>
  </defs>
  <path id="Path_790" data-name="Path 790" class="cls-1" d="M0,0H203V216H0Z" transform="translate(2879 446)"/>
  <g id="noun_1087641_cc" transform="translate(2583.202 263.69) rotate(19)">
    <g id="Group_2762" data-name="Group 2762" transform="translate(463.067 130.037)">
      <g id="Group_2761" data-name="Group 2761" transform="translate(0 0)">
        <path id="Path_797" data-name="Path 797" class="cls-2" d="M4.522.485A2.579,2.579,0,0,0,2.015.191,2.627,2.627,0,0,0,.2,1.969C-.2,3.307,0,5.151.821,7.523s1.793,3.952,2.918,4.757a2.665,2.665,0,0,0,2.546.308,2.545,2.545,0,0,0,1.773-1.8c.406-1.338.2-3.182-.624-5.552C6.63,2.891,5.656,1.3,4.522.485Z"/>
        <path id="Path_798" data-name="Path 798" class="cls-2" d="M4.5.475A2.626,2.626,0,0,0,1.982.194,2.546,2.546,0,0,0,.194,1.986C-.2,3.317.01,5.176.82,7.531S2.605,11.485,3.74,12.3a2.567,2.567,0,0,0,2.5.293,2.674,2.674,0,0,0,1.829-1.783c.386-1.33.183-3.182-.631-5.552S5.645,1.3,4.5.475Z" transform="translate(38.076 12.282)"/>
      </g>
    </g>
    <path id="Path_799" data-name="Path 799" class="cls-2" d="M156.052,79.153l-1.4-4.077-4.2-12.219-2.8-8.151a12.925,12.925,0,0,1-8.408-24.444l-2.8-8.147-1.409-4.072-4.2-12.223A8.629,8.629,0,0,0,119.883.469L42.164,27.2l4.852,14.153A2.164,2.164,0,0,1,45.684,44.1l-4.079,1.4a2.165,2.165,0,0,1-2.739-1.333L34.015,30,5.824,39.695A8.619,8.619,0,0,0,.471,50.644l2.8,8.149L6.076,66.94l2.805,8.149a12.924,12.924,0,0,1,8.4,24.444l2.8,8.142,2.8,8.151,2.805,8.144a8.608,8.608,0,0,0,10.952,5.344L65.7,119.331l-5.3-14.222a2.158,2.158,0,0,1,1.387-2.712l4.106-1.313a2.15,2.15,0,0,1,2.71,1.4l5.248,14.05,76.862-26.425A8.631,8.631,0,0,0,156.052,79.153ZM47.638,68.593l-4.2-12.226a2.159,2.159,0,0,1,1.338-2.737l4.079-1.4a2.143,2.143,0,0,1,2.732,1.338l4.2,12.211a2.16,2.16,0,0,1-1.333,2.746l-4.077,1.4A2.16,2.16,0,0,1,47.638,68.593ZM62.864,92.969l-4.079,1.394a2.153,2.153,0,0,1-2.737-1.33L51.842,80.809a2.163,2.163,0,0,1,1.338-2.737l4.077-1.4A2.159,2.159,0,0,1,60,78.011L64.2,90.23A2.158,2.158,0,0,1,62.864,92.969Zm9.2-24.848a9.46,9.46,0,0,1-5.283-2.712A13.552,13.552,0,0,1,62.95,54.266a9.5,9.5,0,0,1,2.5-5.385,13.6,13.6,0,0,1,5.718-3.541q5.264-1.82,9.33.142a11.454,11.454,0,0,1,5.794,6.977,11.432,11.432,0,0,1-.271,9.1q-2,4.043-7.273,5.86A13.608,13.608,0,0,1,72.065,68.121Zm12,22.921L92.829,37.88l8.658-2.974L92.655,88.08ZM124.1,73.832q-2,4.068-7.3,5.879a13.493,13.493,0,0,1-6.677.707,9.543,9.543,0,0,1-5.3-2.717,13.468,13.468,0,0,1-3.165-5.136,13.267,13.267,0,0,1-.655-6,9.487,9.487,0,0,1,2.5-5.4,13.588,13.588,0,0,1,5.694-3.556c3.527-1.208,6.657-1.159,9.369.152a11.514,11.514,0,0,1,5.8,6.992A11.458,11.458,0,0,1,124.1,73.832Z" transform="translate(392.234 79.997)"/>
  </g>
</svg>
