<svg id="Group_2758" data-name="Group 2758" xmlns="http://www.w3.org/2000/svg" viewBox="3098 445 203 216">
  <defs>
    <style>
      .cls-1 {
        fill: none;
      }

      .cls-2 {
        fill: #0d2e3f;
      }
    </style>
  </defs>
  <path id="Path_790" data-name="Path 790" class="cls-1" d="M0,0H203V216H0Z" transform="translate(3098 445)"/>
  <g id="noun_1519144_cc" transform="translate(2883 748)">
    <g id="Group_2757" data-name="Group 2757" transform="translate(259 -254)">
      <path id="Path_791" data-name="Path 791" class="cls-2" d="M81.389,4H77.7V33.482A22.138,22.138,0,0,1,55.593,55.593H4V66.648A11.069,11.069,0,0,0,15.056,77.7H69.036L86.453,91.641a3.69,3.69,0,0,0,3.906.435,3.678,3.678,0,0,0,2.086-3.317v-73.7A11.069,11.069,0,0,0,81.389,4Z" transform="translate(25.482 25.482)"/>
      <path id="Path_792" data-name="Path 792" class="cls-2" d="M95.815,58.963V14.741A14.756,14.756,0,0,0,81.074,0H14.741A14.756,14.756,0,0,0,0,14.741v73.7a3.69,3.69,0,0,0,2.123,3.339,3.739,3.739,0,0,0,1.563.346,3.644,3.644,0,0,0,2.359-.855L27.13,73.7H81.074A14.756,14.756,0,0,0,95.815,58.963ZM55.278,44.222H25.8a3.685,3.685,0,1,1,0-7.37H55.278a3.685,3.685,0,1,1,0,7.37ZM70.019,29.482H25.8a3.685,3.685,0,0,1,0-7.37H70.019a3.685,3.685,0,0,1,0,7.37Z"/>
    </g>
  </g>
</svg>
