<svg id="Layer_1" data-name="Layer 1" xmlns="http://www.w3.org/2000/svg" viewBox="0 0 266.91 205.99"><defs><style>.cls-1{fill:#f6cd19;}</style></defs><title>app dev</title><path class="cls-1" d="M200.93,143a32,32,0,0,1-32,32h-80a32,32,0,0,1-32-32V63a32,32,0,0,1,32-32h80a32,32,0,0,1,32,32Zm-37.49-35.41H149.29L138.21,77.42a12.95,12.95,0,0,0-5-21.15v-5a4.29,4.29,0,0,0-8.57,0v5a13,13,0,0,0-5,21.15l-11.08,30.14H94.42a4.3,4.3,0,0,0-3,7.34,4.21,4.21,0,0,0,3,1.27h11l-10,27.17a6.3,6.3,0,0,0-.16,5L98.66,159l16.72-42.8h9.26v4.35a4.29,4.29,0,1,0,8.58,0h0V116.2h9.26L159.17,159l3.44-10.66a6.31,6.31,0,0,0-.16-5l-10-27.17h11a4.3,4.3,0,0,0,4.29-4.31h0a4.25,4.25,0,0,0-1.26-3,4.19,4.19,0,0,0-3-1.3Zm-30.22,0v-4.37a4.29,4.29,0,0,0-8.58,0v4.37h-5.92l10.19-26.08h0l10.18,26.08Zm-4.29-34.78a4.31,4.31,0,1,1,4.29-4.33s0,0,0,0a4.31,4.31,0,0,1-4.29,4.27Z"/></svg>