<svg id="Layer_1" data-name="Layer 1" xmlns="http://www.w3.org/2000/svg" viewBox="0 0 266.91 205.99"><defs><style>.cls-1{fill:#f6cd19;}</style></defs><title>games</title><path class="cls-1" d="M82.81,64.22a38.78,38.78,0,1,0,38.27,44.9H142.5a38.77,38.77,0,1,0,38.27-44.9Zm0,18.37a4.08,4.08,0,0,1,4.08,4.08V98.91H99.14a4.08,4.08,0,1,1,0,8.16H86.89v12.25a4.08,4.08,0,0,1-8.16,0V107.08H66.48a4.08,4.08,0,0,1,0-8.16H78.73V86.67A4.08,4.08,0,0,1,82.81,82.58Zm98,0a6.12,6.12,0,1,1-6.12,6.12A6.12,6.12,0,0,1,180.77,82.58ZM166.49,96.87a6.12,6.12,0,1,1-6.12,6.12A6.12,6.12,0,0,1,166.49,96.87Zm28.57,0a6.12,6.12,0,1,1-6.12,6.12A6.12,6.12,0,0,1,195.06,96.87Zm-14.29,14.29a6.12,6.12,0,1,1-6.12,6.12A6.12,6.12,0,0,1,180.77,111.16Z"/></svg>