<svg id="Layer_1" data-name="Layer 1" xmlns="http://www.w3.org/2000/svg" viewBox="0 0 266.91 205.99"><defs><style>.cls-1{fill:#0d2e3f;}</style></defs><title>idea</title><path class="cls-1" d="M84.56,99.63H73.12a2.8,2.8,0,0,1,0-5.6H84.56a2.8,2.8,0,1,1,0,5.6Z"/><path class="cls-1" d="M178.17,96.1h11.44a2.8,2.8,0,0,0,0-5.6H178.17a2.8,2.8,0,0,0,0,5.6Z"/><path class="cls-1" d="M91,72.22a2.77,2.77,0,0,1-1.4-.38l-9.91-5.72a2.8,2.8,0,1,1,2.8-4.85L92.35,67A2.8,2.8,0,0,1,91,72.22Z"/><path class="cls-1" d="M108.43,54.74a2.8,2.8,0,0,1-2.43-1.4l-5.72-9.91a2.8,2.8,0,0,1,4.85-2.8l5.72,9.9a2.8,2.8,0,0,1-2.42,4.2Z"/><path class="cls-1" d="M132.31,48.34a2.8,2.8,0,0,1-2.8-2.8V34.1a2.8,2.8,0,1,1,5.6,0V45.54A2.8,2.8,0,0,1,132.31,48.34Z"/><path class="cls-1" d="M156.18,54.74a2.77,2.77,0,0,1-1.4-.38,2.8,2.8,0,0,1-1-3.83l5.72-9.91a2.8,2.8,0,1,1,4.85,2.8l-5.72,9.91A2.8,2.8,0,0,1,156.18,54.74Z"/><path class="cls-1" d="M173.67,72.22a2.8,2.8,0,0,1-1.4-5.23l9.91-5.72a2.8,2.8,0,0,1,2.8,4.85l-9.9,5.72A2.8,2.8,0,0,1,173.67,72.22Z"/><path class="cls-1" d="M183.57,125.7a2.77,2.77,0,0,1-1.4-.38l-9.91-5.72a2.8,2.8,0,0,1,2.8-4.85l9.9,5.72a2.8,2.8,0,0,1-1.4,5.23Z"/><path class="cls-1" d="M81.05,125.69a2.8,2.8,0,0,1-1.4-5.23l9.91-5.72a2.8,2.8,0,0,1,2.8,4.85l-9.9,5.72A2.78,2.78,0,0,1,81.05,125.69Z"/><path class="cls-1" d="M141.35,141H121.29c-5.38-.23-6.73-5.26-7.38-7.68a30.08,30.08,0,0,0-6.82-13.17C96.86,108.68,93.89,92.27,99.7,79.33c5.3-11.82,16.85-18.6,31.67-18.6s26.36,6.78,31.67,18.6c5.8,12.93,2.84,29.35-7.39,40.85a30,30,0,0,0-6.81,13.12c-.66,2.48-2,7.51-7.4,7.74Zm-19-8.3h18c.16-.46.33-1.1.45-1.53a38.59,38.59,0,0,1,8.64-16.55c8.08-9.1,10.5-21.93,6-31.93C151.55,74,142.77,69,131.36,69s-20.19,5-24.09,13.69c-4.49,10-2.07,22.83,6,31.93a38.42,38.42,0,0,1,8.61,16.43C122,131.63,122.21,132.28,122.37,132.74Z"/><path class="cls-1" d="M142.77,152.56H121.26a4.15,4.15,0,0,1,0-8.3h21.52a4.15,4.15,0,0,1,0,8.3Z"/><path class="cls-1" d="M141.88,163.36H122.15a4.15,4.15,0,0,1,0-8.3h19.73a4.15,4.15,0,0,1,0,8.3Z"/><path class="cls-1" d="M143.57,168.63c0,2.8-4.62,6.33-11.13,6.52a3.75,3.75,0,0,1-.43,0,3.61,3.61,0,0,1-.43,0c-6.49-.2-11.11-4.54-11.11-6.52,0-2.29,1.84-2.56,4.15-2.56h14.8C141.71,166.07,143.57,166.34,143.57,168.63Z"/></svg>