<svg id="Layer_1" data-name="Layer 1" xmlns="http://www.w3.org/2000/svg" viewBox="0 0 266.91 205.99"><defs><style>.cls-1{fill:#0d2e3f;}</style></defs><title>product launch</title><path class="cls-1" d="M166.37,93.92a9,9,0,0,0-5.84,2.19,9,9,0,0,0-14.58-1.32,9,9,0,0,0-2-1.75,34,34,0,1,0-27.46,4.17v20.88l-8.58,10.74a2.26,2.26,0,0,0-.5,1.42v25a2.27,2.27,0,0,0,.67,1.61l8.45,8.41a11.36,11.36,0,0,0,11.31,10.36h34a11.36,11.36,0,0,0,11.35-11.35v-4l2-4.06a2.28,2.28,0,0,0,.24-1V103A9.09,9.09,0,0,0,166.37,93.92ZM116.43,66.68V80.1a18.16,18.16,0,1,1,18.16,0V66.68a9.08,9.08,0,1,0-18.16,0ZM96,64.41a29.51,29.51,0,1,1,38.59,28.07V85.21a22.7,22.7,0,1,0-18.16,0v7.27A29.69,29.69,0,0,1,96,64.41Zm74.9,90.25-2,4.06a2.28,2.28,0,0,0-.24,1v4.54a6.82,6.82,0,0,1-6.81,6.81h-34a6.82,6.82,0,0,1-6.81-6.81,2.27,2.27,0,0,0-.67-1.61l-8.41-8.37V131l4.54-5.68v9.42H121V66.68a4.54,4.54,0,1,1,9.08,0v52.2h4.54V100.73a4.54,4.54,0,0,1,9.08,0v18.16h4.54V100.73a4.54,4.54,0,0,1,9.08,0v20.43h4.54V103a4.54,4.54,0,0,1,9.08,0Z"/></svg>