<svg id="Layer_1" data-name="Layer 1" xmlns="http://www.w3.org/2000/svg" viewBox="0 0 266.91 205.99"><defs><style>.cls-1{fill:#0d2e3f;}</style></defs><title>ux int</title><path class="cls-1" d="M182.5,53.73v-5.1a4.38,4.38,0,0,0-4.34-4.38H101.28a4.38,4.38,0,0,0-4.41,4.34h0v5.15l.07,108.72v8.21a4.38,4.38,0,0,0,4.38,4.38h76.84a4.38,4.38,0,0,0,4.38-4.38h0ZM96.87,64.1Zm79.5,78.35V168.7H103.08v-56h73.25Zm0-88.82v52.9H103.08V50.44h73.25Zm6.16,102.54V59.93"/><path class="cls-1" d="M162.84,62.81a3.91,3.91,0,0,0,2.3.73H166a3.94,3.94,0,0,0,3.92-3.62V58.78a3.87,3.87,0,0,0-.51-1.9,3.94,3.94,0,0,0-3.46-2h-.79a3.89,3.89,0,0,0-.65,0,3.94,3.94,0,0,0-2.81,1.9h0a3.87,3.87,0,0,0-.51,2v1.15A3.94,3.94,0,0,0,162.84,62.81Z"/><path class="cls-1" d="M157.58,158.55H119.82a3.16,3.16,0,0,0-3.09,3.09,3,3,0,0,0,.16.84,3.05,3.05,0,0,0,2.93,2.3h37.76a3.05,3.05,0,0,0,2.93-2.3,3,3,0,0,0,.16-.84A3.16,3.16,0,0,0,157.58,158.55Z"/><path class="cls-1" d="M165.63,117.85H111.48a3.05,3.05,0,0,0-2.71,3v10.84a3.05,3.05,0,0,0,2.71,3H166a3.05,3.05,0,0,0,2.71-3V121a3.05,3.05,0,0,0-2.71-3Zm-3.09,10.84h-47.6v-4.61h47.61Z"/><path class="cls-1" d="M166,138.28H111.44a3.05,3.05,0,0,0-2.71,3V152.1a3.05,3.05,0,0,0,2.71,3H166a3.05,3.05,0,0,0,2.71-3V141.26A3.05,3.05,0,0,0,166,138.28Zm-3.46,7.35V149H114.95v-4.69h47.61Z"/></svg>