<svg id="Layer_1" data-name="Layer 1" xmlns="http://www.w3.org/2000/svg" viewBox="0 0 266.91 205.99"><defs><style>.cls-1{fill:#f6cd19;}</style></defs><title>web development</title><path class="cls-1" d="M32.19,76.71v80.74A17.91,17.91,0,0,0,49.72,175h159a17.91,17.91,0,0,0,17.52-17.52V76.71Zm67.59,73.23a4.54,4.54,0,0,1-6.26,0L72.25,128.65a4.91,4.91,0,0,1,0-6.88l21.28-21.28a4.87,4.87,0,1,1,6.88,6.88L82.89,124.9l17.52,17.52C101.66,145.55,101.66,148.06,99.78,149.93Zm53.82-54.45-40.68,65.09a5.15,5.15,0,0,1-3.76,2.5,3.76,3.76,0,0,1-2.5-.63c-2.5-1.25-3.13-4.38-1.25-6.88l40.06-65.09c1.25-2.5,4.38-3.13,6.88-1.25A4.85,4.85,0,0,1,153.61,95.48Zm33.17,33.8L165.5,150.56a4.54,4.54,0,0,1-6.26,0,4.91,4.91,0,0,1,0-6.88l17.52-17.52-17.52-17.52a4.87,4.87,0,1,1,6.88-6.88L187.41,123C188.66,124.27,188.66,127.4,186.78,129.28Z"/><path class="cls-1" d="M208.68,31h-159A17.91,17.91,0,0,0,32.19,48.54V66.69h194V48.54A17.91,17.91,0,0,0,208.68,31ZM65.36,51.67a5,5,0,1,1-10,0V46a4.94,4.94,0,0,1,5-5,4.61,4.61,0,0,1,5,5Zm20,0a5,5,0,1,1-10,0V46a4.94,4.94,0,0,1,5-5c3.13.63,5,2.5,5,5Zm20.65,0a4.94,4.94,0,0,1-5,5,4.61,4.61,0,0,1-5-5V46a4.94,4.94,0,0,1,5-5,4.61,4.61,0,0,1,5,5Z"/></svg>