<svg id="Layer_1" data-name="Layer 1" xmlns="http://www.w3.org/2000/svg" viewBox="0 0 266.91 205.99"><defs><style>.cls-1{fill:#f6cd19;}</style></defs><title>Artboard 1</title><path class="cls-1" d="M150.65,100.87a6.91,6.91,0,0,0-3-1.7,13.06,13.06,0,0,0-3.9-.5h-1.4v21.5h1.4a12.72,12.72,0,0,0,3.9-.6,8.3,8.3,0,0,0,3-1.8,7.67,7.67,0,0,0,1.9-3.4,18.93,18.93,0,0,0,0-10.2A6.85,6.85,0,0,0,150.65,100.87Z"/><path class="cls-1" d="M161.15,68.87l-1.2-32H76.55v132.6h114.1V69.27Zm-31.6,57.4h-5a1.51,1.51,0,0,1-1.4-.9l-3-6.1-1.2-2.7c-.4-.9-.8-1.8-1.3-2.9h-.2c-.4,1-.8,2-1.1,2.9s-.8,1.8-1.1,2.7l-2.7,6.1a1.69,1.69,0,0,1-1.4.9h-4.7a1.72,1.72,0,0,1-1.5-1.7c0-.2.1-.3.1-.5l7.8-14.5a1.71,1.71,0,0,0,0-1.4l-7.2-13.5a1.46,1.46,0,0,1,.57-2l0,0a1.85,1.85,0,0,1,.7-.2h5a1.69,1.69,0,0,1,1.4.9l2.5,5.5a18.89,18.89,0,0,1,1.1,2.5c.4.9.8,1.9,1.3,2.9h.2a30,30,0,0,1,1.1-2.9c.4-.9.7-1.7,1.1-2.5l2.3-5.5a1.69,1.69,0,0,1,1.4-.9h4.7a1.54,1.54,0,0,1,1.5,1.5,1.85,1.85,0,0,1-.2.7l-7.2,13.9a1.71,1.71,0,0,0,0,1.4l7.7,14.1a1.6,1.6,0,0,1-.5,2.1c-.2,0-.5.1-.8.1Zm30.4-9.5a14.19,14.19,0,0,1-3.4,5.3,12.91,12.91,0,0,1-5.2,3.2,19.69,19.69,0,0,1-6.8,1H136a1.54,1.54,0,0,1-1.5-1.5V94a1.54,1.54,0,0,1,1.5-1.5h8.1a23.7,23.7,0,0,1,7,1,13.29,13.29,0,0,1,5.3,3,13.08,13.08,0,0,1,3.4,5.2,19.36,19.36,0,0,1,1.2,7.5,18,18,0,0,1-1,7.57Z"/><path class="cls-1" d="M193.05,63.17l-25.9-28.3a13.63,13.63,0,0,0-10-4.4H83.85a13.61,13.61,0,0,0-13.6,13.6v117.8a13.61,13.61,0,0,0,13.6,13.6H183a13.61,13.61,0,0,0,13.6-13.6V72.27A13.88,13.88,0,0,0,193.05,63.17Zm-8.6,4h-16.7a4.5,4.5,0,0,1-4.5-4.5s0-.07,0-.1h0V44Zm-1.4,99.1H83.85a4.48,4.48,0,0,1-4.5-4.46s0,0,0,0V44a4.48,4.48,0,0,1,4.46-4.5h70.34V62.7a13.61,13.61,0,0,0,13.6,13.6h19.8v85.6a4.46,4.46,0,0,1-4.5,4.37Z"/></svg>